<svg xmlns="http://www.w3.org/2000/svg" width="622" height="550"><path fill="#1F3B78" d="M505.786 475.732l113.537-102.255-133.045-23.188z" opacity=".1"/><path fill="#A2BCE3" d="M527.448 62.697c0-7.668-2.665-15.053-6.923-20.684l.105-.095c-3.956-5.345-9.342-9.158-15.273-10.216L299.693 6.422c-5.129-.916-10.216-6.188-13.956-3.281l-9.066 5.808 3.884 395.521c0 .256.033.424.095.519.073 14.69 9.893 28.314 21.995 30.477l205.293 40.27 8.82-7.669c6.706-5.855 10.691-11.289 10.691-20.997l-.001-384.373z"/><path fill="#B9CCEB" d="M380.682 165.179S269.629 430.001 270.001 414.846l3.866-403.24 10.327-9.845c3.835-2.992 9.144-1.467 14.276-.536L505.435 31.57c5.938 1.074 11.255 4.979 15.098 10.46L380.682 165.179z"/><path fill="#D7E1F4" d="M492.496 480.476l-202.312-36.389c-12.146-2.17-21.499-16.062-21.499-30.819V27.071c0-14.756 6.271-19.536 18.419-17.367L492.625 40.8c12.148 2.171 21.389 16.103 21.389 30.857v386.198c0 14.753-9.368 24.789-21.518 22.621"/><path fill="#1F3B78" d="M488.44 483.253l-202.312-36.389c-12.148-2.17-21.501-16.062-21.498-30.818V33.699c0-14.754 9.507-21.241 21.654-19.072L488.57 43.579c12.147 2.169 21.386 16.101 21.386 30.855v386.198c-.002 14.754-9.367 24.789-21.516 22.621"/><path fill="#708AC6" d="M495.338 69.109c0-2.214-1.295-3.81-3.403-4.186l-202.091-31.15c-4.54-.809-10.596 5.078-10.596 9.848l-.003 328.835h.003l-.003 38.71c0 2.214 1.299 3.811 3.402 4.186L485.13 451.51c4.536.812 10.207-4.144 10.207-8.917V107.818l.001-38.709z"/><path fill="#88A0D3" d="M305.219 60.655c-6.608-.965-12.593 3.693-12.593 9.798v207.558c0 9.8 7.799 18.145 18.4 19.688l93.21 14.533c11.73 1.709 85.837-25.325 85.837-36.164V96.063c0-4.877-3.885-9.031-9.162-9.8L305.219 60.655z"/><path fill="#F4A6A9" d="M276.711 217.785c5.416 6.668 1.817 21.183 3.164 27.457l-21.98 7.606s-14.044-14.389-13.223-15.265c.822-.877 32.039-19.798 32.039-19.798"/><path fill="#1F3B78" d="M391.382 87.116c-9.029 3.287-45.148 3.969-45.432-8.41-.358-15.927 13.691-20.783 25.963-20.379 46.409 1.538 65.881 3.876 63.108 43.98 0 0-6.203 42.776-31.612 38.261 6.216-8.345 9.655-35.752 5.972-33.449-17.558 10.979-9.743-23.006-17.999-20.003"/><path fill="#25499A" d="M423.685 195.241l-63.407-8.971 13.001-23.002c17.148-5.362 40.245-7.07 49.203 1.567l1.203 30.406z"/><path fill="#EF7C6A" d="M313.805 198.098c-11.776 10.718-8.413 19.764-9.233 38.046-.617 13.829 11.97 14.589 27.175 15.316l126.915 16.324-9.149-9.101s43.113-51.334 28.479-59.093c-10.979-5.824-21.268-13.109-29.411-16.562-18.582-7.878-29.853-13.739-43.474-15.068-16.158-1.575-27.013-3.505-41.229 3.298-6.945 3.324-43.307 20.681-50.073 26.84"/><path fill="#EF7C6A" d="M467.266 304.125c1.614-5.578 2.323-11.609 2.193-17.655-.724-33.782-4.378-72.245-4.532-93.297l-146.687 3.924c-2.228 30.736-3.27 82.551-2.328 101.446 39.28 14.195 98.453 27.301 151.354 5.582"/><path fill="#F4A6A9" d="M380.363 177.918l-10.29-57.298 39.655 7.225 13.7 50.94c2.459 7.791-32.652 28.98-43.065-.867"/><path fill="#25499A" d="M380.778 187.826s4.565.9 8.772-.474l13.168 21.688-.835.874c-2.602 2.718-7.003 3.031-8.396.593l-12.709-22.681z"/><path fill="#25499A" d="M393.824 191.817s-4.505.061-7.213-1.78l-25.467 16.542.144.879c.452 2.742 4.026 3.698 6.814 1.826l25.722-17.467z"/><path fill="#5579BC" d="M390.959 188.739s-17.678-.032-17.683-25.471l-8.438 2.422c-1.602 1.209-5.354 2.373-7.79 11.101-1.452 5.196-1.363 7.372-.595 12.271l2.258 14.299c.506 3.205 4.704 4.309 7.934 2.085l24.314-16.707z"/><path fill="#5579BC" d="M384.885 187.401s17.744 3.47 37.597-22.565l11.503 8.974c2.469 2.363.259 5.352-1.714 7.435l-25.779 27.147c-3.019 3.187-8.178 3.533-9.748.653l-11.859-21.644z"/><path fill="#E37A7B" d="M377.741 163.163s16.445-10.466 16.497-10.635c0 0-.252 11.721-14.912 19.617l-1.585-8.982z"/><path fill="#F4A6A9" d="M359.802 156.885c-6.34-6.93-10.544-11.833-10.68-26.099l3.138-37.461c-.17-18.335 9.186-28.534 26.264-25.841l1.705.269c17.074 2.693 31.186 19.897 31.355 38.233 8.916 7.942 4.01 11.627-3.601 36.439-3.099 4.933-17.655 14.53-28.67 18.216-2.499.837-15.9.194-19.511-3.756"/><path fill="#161B32" d="M379.448 118.115c-.262 2.116.589 4.051 1.902 4.322s2.593-1.222 2.854-3.336c.265-2.115-.59-4.049-1.899-4.322-1.315-.271-2.594 1.222-2.857 3.336m-23.463-4.701c-.261 2.115.59 4.05 1.902 4.32 1.313.271 2.592-1.221 2.854-3.336.266-2.114-.589-4.048-1.902-4.321-1.313-.271-2.593 1.222-2.854 3.337"/><path fill="#1F3B78" d="M393.279 112.687c-2.63-.792-7.656-1.217-10.249-1.364-5.938-.333-5.607-6.176-.452-5.481 4.99.67 6.92.611 10.374 2.549 4.244 2.378 1.411 4.622.327 4.296m-36.933-7.206c1.768-.114 5.201.772 6.979 1.303 4.066 1.216 3.529-4.794.019-5.442-3.397-.626-4.729-1.19-7.001-.132-2.795 1.301-.728 4.317.003 4.271"/><path fill="#F4A6A9" d="M418.823 126.377c-3.802 5.238-9.211 6.545-12.076 2.927-2.868-3.618-2.113-10.8 1.688-16.036 3.802-5.234 9.209-6.545 12.079-2.927 2.868 3.622 2.112 10.8-1.691 16.036"/><path fill="#E37A7B" d="M413.068 118.374a.93.93 0 01-.81-1.344c.061-.124 1.467-3.063 4.029-3.616 1.492-.328 2.992.207 4.457 1.585.38.359.384.972.009 1.367-.379.395-.993.422-1.372.063-.985-.93-1.913-1.31-2.753-1.132-1.312.279-2.339 1.893-2.621 2.491a1.025 1.025 0 01-.939.586"/><path fill="#E37A7B" d="M414.573 121.05c-.404 1.404-1.463 2.194-2.355 1.762-.896-.432-1.292-1.92-.884-3.324.404-1.404 1.463-2.191 2.355-1.762.897.431 1.292 1.92.884 3.324m-46.64 11.714c-2.73-.061-3.974-1.125-4.536-2.058-.941-1.557-.505-3.484.153-4.662.807-1.444 3.035-8.451 3.821-11.028.166-.539.738-.861 1.267-.718a.963.963 0 01.669 1.229c-.299.973-2.938 9.537-4.001 11.44-.423.754-.638 1.865-.168 2.645.642 1.053 2.332 1.195 3.657 1.127a.963.963 0 011.021.953 1.061 1.061 0 01-1.002 1.058c-.309.016-.602.02-.881.014"/><path fill="#1F3B78" d="M346.281 74.272s-3.812 11.401 7.015 14.623c10.824 3.224 41.148-1.938 48.401 5.967 7.257 7.902-1.146 24.481 5.369 24.776 8.377.378 8.817-30 8.817-30L402.1 70.533s-22.368-22.229-55.819 3.739"/><path fill="#FFF" d="M359.656 135.884s-.345 9.74 8.188 10.717c8.525.973 9.834-7.341 9.834-7.341l-18.022-3.376z"/><path fill="#EF7C6A" d="M306.688 208.69l-12.242 65.03 23.032 23.403 21.294-17.248z"/><path fill="#1F3B78" d="M300.372 258.467l17.27 21.317a.775.775 0 101.206-.976l-17.271-21.316a.775.775 0 10-1.205.975"/><path fill="#EF7C6A" d="M442.363 311.829c29.076-7.13 34.028-11.562 50.92-23.731-.592-36.24-5.513-78.619-9.086-83.637-8.957-12.57-35.616-21.433-35.616-21.433s-9.941 43.787-9.202 97.539c.173 12.713 1.194 23.007 2.984 31.262m-170.737-33.13s18.866 10.951 47.342 20.934c.346-2.342.776-12.884.211-15.367-13.536-19-20.632-25.449-33.532-52.467-16.032 10.363-16.589 10.555-28.232 5.017-.007.85 14.211 41.883 14.211 41.883"/><path fill="#1F3B78" d="M318.252 297.104s-.019-.737-.033-2.073c-.02-1.332-.036-3.255-.036-5.614 0-6.809.144-17.245.847-27.562.354-5.156.842-10.283 1.521-14.905.68-4.623 1.553-8.743 2.646-11.861a.773.773 0 00-.476-.989.777.777 0 00-.987.476c-1.146 3.276-2.028 7.468-2.717 12.149-2.062 14.032-2.385 32.443-2.385 42.693 0 4.731.067 7.724.067 7.728a.777.777 0 00.795.756.782.782 0 00.758-.798m127.519 12.819l-3.585-50.95 7.899-15.981a.776.776 0 00-1.391-.684l-7.994 16.169a.756.756 0 00-.078.397l3.603 51.159a.773.773 0 00.828.719.778.778 0 00.718-.829"/><path fill="#2B4583" d="M263.562 154.729l-1.585-.08c-7.513-.379-13.911 5.402-14.29 12.913l-3.816 75.548c-.385 7.509 5.399 13.907 12.912 14.283l1.587.082c7.512.381 13.91-5.401 14.293-12.91l3.816-75.549c.379-7.509-5.403-13.908-12.917-14.287"/><path fill="#F4A6A9" d="M256.2 207.852s12.974 8.282-4.048 8.894c0 0 6.912-2.708 7.06 2.031.146 4.74-11.98 6.414-11.98 6.414s5.611-2.593 7.284.992c.983 2.104-3.755 5.059-7.834 7.14-3.028 1.545-6.679-.114-7.568-3.393-1.331-4.919-2.07-11.835 2.241-16.352 7.318-7.663 14.845-5.726 14.845-5.726m19.945 9.336c-3.291-.018-5.965-2.721-5.947-6.008l.01-1.887c.018-3.287 2.722-5.963 6.01-5.946 3.289.019 5.963 2.721 5.948 6.007l-.013 1.888c-.017 3.287-2.722 5.96-6.008 5.946"/><path fill="#E1455C" d="M205.319 252.373l11.08-4.155-42.548-120.792-13.657 5.422z"/><path fill="#E75187" d="M268.033 142.885c.781-.408 24.544-8.082 25.452-8.218 2.835-1.479 6.6-1.217 10.565 1.144 7.723 4.594 13.299 15.371 12.452 24.081-.532 5.468-3.473 8.814-7.495 9.412-.785.408-24.546 8.083-25.455 8.218-2.838 1.479-6.598 1.217-10.566-1.145-7.723-4.593-13.297-15.373-12.448-24.08.532-5.467 3.469-8.815 7.495-9.412"/><path fill="#D63F78" d="M265.25 143.54c.783-.407 24.545-8.082 25.454-8.217 2.835-1.479 6.595-1.217 10.564 1.144 7.721 4.594 13.298 15.373 12.45 24.08-.532 5.468-3.473 8.815-7.496 9.412-.784.408-24.546 8.083-25.453 8.218-2.839 1.479-6.599 1.218-10.564-1.144-7.727-4.589-13.298-15.371-12.45-24.08.531-5.468 3.469-8.815 7.495-9.413"/><path fill="#E75187" d="M235.387 145.383c1.158-.602 36.303-11.952 37.649-12.152 4.191-2.188 9.758-1.8 15.628 1.69 11.422 6.795 19.67 22.741 18.414 35.617-.785 8.091-5.134 13.041-11.085 13.922-1.159.609-36.306 11.959-37.652 12.157-4.193 2.187-9.756 1.799-15.624-1.692-11.426-6.791-19.672-22.739-18.418-35.618.787-8.088 5.134-13.04 11.088-13.924"/><path fill="#D63F78" d="M302.729 146.489c2.844 5.839 4.359 12.198 3.947 17.991-.577 8.105-4.159 11.325-10.727 14.203-1.146.633-35.984 12.886-37.324 13.119-4.141 2.296-9.706 2.052-15.665-1.285-8.402-4.71-14.229-11.132-17.017-20.947l76.786-23.081z"/><path fill="#DCF0FD" d="M247.33 135.517l-78.106-4.688 42.295 118.379 69.977-57.272c6.548-16.019-13.128-59.151-34.166-56.419"/><path fill="#D1E8F5" d="M186.286 178.585l24.249 63.51s72.259-57.354 72.192-59.157c-.344-9.481-5.288-21.513-9.449-28.837l-86.992 24.484z"/><path fill="#EF7EAC" d="M153.318 154.107c-7.066 28.765 5.979 67.153 29.145 85.748 23.162 18.593 47.671 10.349 54.74-18.417 7.066-28.765-5.979-67.153-29.143-85.748-23.164-18.591-47.672-10.345-54.742 18.417"/><path fill="#E75187" d="M143.057 157.98c-7.069 28.764 5.979 67.154 29.144 85.747 23.161 18.595 47.67 10.348 54.736-18.413 7.07-28.765-5.978-67.157-29.14-85.748-23.165-18.593-47.672-10.347-54.74 18.414"/><path fill="#FFF" d="M150.311 158.165c-6.557 26.671 5.542 62.271 27.023 79.513 21.479 17.243 44.206 9.596 50.762-17.077 6.557-26.673-5.544-62.271-27.021-79.515-21.482-17.241-44.209-9.595-50.764 17.079"/><path fill="#DCF0FD" d="M222.714 170.414c-6.291-15.039-16.759-25.355-21.608-29.248-21.479-17.242-44.205-9.597-50.762 17.075-1.876 7.635-3.237 16.318.6 35.052 16.272-29.042 45.782-31.429 71.77-22.879"/><path fill="#D1E8F5" d="M227.959 201.187c2.854-11.618-3.146-27.239-13.409-34.891-4.922-3.672-9.929-4.837-14.126-3.774v-.006l-.183.054c-.188.051-.371.105-.558.163l-15.57 4.582c-.608.13-1.204.303-1.78.524h-.004c-3.905 1.505-6.94 5.102-8.278 10.537-2.854 11.617 3.147 27.236 13.409 34.89 4.831 3.602 9.743 4.793 13.89 3.835l.03-.008c.459-.107.905-.244 1.345-.402l14.347-4.3a11.81 11.81 0 003.435-1.027l.009-.004h-.002c3.501-1.675 6.206-5.132 7.445-10.173"/><path fill="#4F6CB3" d="M211.821 152.175c-.172.053-26.136 8.729-26.136 8.729-.564.138-1.174.582-1.654.526l-.107-.012-.004.019c-4.267 1.476-6.468 5.183-7.801 10.616-2.856 11.616 2.183 27.101 11.537 34.609 4.405 3.535 8.39 4.609 12.559 3.64v.001l.284.02c.426-.11.969-.237 1.377-.401 0 0 26.771-9.252 27.773-9.777-.761-10.795-3.58-28.973-17.828-47.97"/><path fill="#5D7DBE" d="M201.386 181.878c3.902 10.198 2.347 20.219-3.477 22.381-5.82 2.164-13.703-4.353-17.605-14.552-3.902-10.201-2.347-20.221 3.474-22.383 5.823-2.162 13.703 4.355 17.608 14.554"/><path fill="#4562AB" d="M229.713 200.152s.656-11.646-5.91-27.204c-3.233-7.668-6.022-13.173-11.981-20.775l-4.839 1.618s16.083 20.193 16.309 48.705l6.421-2.344z"/><path fill="#FFF" d="M258.986 138.418l-47.465-3.087 13.597 14.092 42.824-2.94z"/><path fill="#F29CBA" d="M282.59 134.99l-19.57 6.409c1.812 1.569 3.54 3.387 5.178 5.394l20.394-6.993-6.002-4.81z"/><path fill="#EAF6FE" d="M263.021 141.4l-.532.174 5.453 4.909-14.837 1.021 3.924 3.118 11.168-3.829c-1.635-2.007-3.367-3.824-5.176-5.393"/><path fill="#FFF" d="M262.491 141.574l-11.929 3.907 2.543 2.023 14.837-1.021z"/><path fill="#F4A6A9" d="M481.755 325.418a4.141 4.141 0 01-.037-5.844l3.502-3.547a4.14 4.14 0 015.848-.038 4.147 4.147 0 01.04 5.845l-3.505 3.548a4.146 4.146 0 01-5.848.036"/><path fill="#1F3B78" d="M556.222 196.59s12.842-.53 20.362 10.014c7.521 10.539 8.287 22.521 17.649 23.358 9.362.836 10.743 8.961 7.676 16.865-3.069 7.907 14.41 16.492-2.465 21.946-16.876 5.449-41.487 6.061-42.149-5.141-.663-11.2-18.396-22.866-20.89-41.801-1.318-10.045 19.817-25.241 19.817-25.241"/><path fill="#F4A6A9" d="M528.606 259.339s-12.359 38.103-14.409 41.308c-2.049 3.205-26.921 28.42-26.921 28.42l5.755 5.021 28.911-21.123c4.562-3.195 6.363-7.658 8.198-12.916l14.711-42.107-16.245 1.397z"/><path fill="#F4A6A9" d="M529.785 311.713l6.327-23.906s-12.816-21.103-7.508-28.47c5.31-7.363 13.401-14.27 13.401-14.27h24.059l13.274 24.86-5.018 22.095 9.047 19.69s-35.148 32.278-53.585 1.231"/><path fill="#1F3B78" d="M592.349 483.466c-12.471 0-23.138 2.508-27.521 6.054a134.795 134.795 0 00-11.835-.516c-24.753 0-44.818 6.529-44.818 14.58 0 8.057 20.065 14.586 44.818 14.586s44.818-6.529 44.818-14.586c0-.329-.045-.656-.112-.98 13.82-.819 24.3-4.758 24.3-9.488.001-5.331-13.274-9.65-29.65-9.65" opacity=".1"/><path fill="#1F3B78" d="M520.268 501.117l15.312-17.874c2.334-1.263 6.653-1.793 10.149-1.233 1.57.255 2.381 1.292 2.454 2.88l.326 2.942c.396 4.937.975 6.556-2.106 8.222l-18.287 9.894c-3.776 2.975-14.258 1.68-7.848-4.831"/><path fill="#F4A6A9" d="M536.063 484.44s-8.756 10.643-7.669 11.369c4.515 3.021 15.404-6.395 15.404-6.395s-5.747-5.538-7.735-4.974"/><path fill="#F4A6A9" d="M546.148 485.99c-.479 4.973-7.646 5.13-9.75 1.063-6.43-49.03-5.014-94.245-3.509-144.424l19.559-1.351c-6.78 59.929-9.149 98.213-6.3 144.712"/><path fill="#342A55" d="M549.109 358.962c1.333-.323 16.955 2.39 16.955 2.39l17.308-49.637c-20.712 4.949-40.105 7.616-53.587 0l19.324 47.247z"/><path fill="#1F3B78" d="M601.297 485.188l-1.884-24.192c.779-2.622 3.54-6.161 6.5-8.299 1.328-.962 2.677-.797 3.89.308l2.385 1.906c3.892 3.308 5.493 4.068 4.464 7.525l-6.11 20.55c-.58 4.919-9.167 11.618-9.245 2.202"/><path fill="#F4A6A9" d="M600.64 461.513s1.386 14.144 2.711 13.879c5.494-1.089 6.361-19.242 6.361-19.242s-8.034 3.503-9.072 5.363"/><path fill="#F4A6A9" d="M609.561 454.117c1.585 2.996-4.305 9.698-8.921 6.763-15.825-13.486-20.219-15.432-28.861-38.925-7.802-21.2 10.912-54.438 13.802-29.066 2.729 23.968 9.534 47.53 23.98 61.228"/><path fill="#1F3B78" d="M583.37 311.713s11.853 19.205 6.976 46.398c-4.881 27.191-2.556 45.478 2.488 63.181l8.035 16.748s-7.288 14.884-17.28 10.549c-9.998-4.332-20.508-43.343-20.685-47.262-.42-9.287-8.678-72.067-8.678-72.067l29.144-17.547z"/><path fill="#1F3B78" d="M557.133 334.695s-9.917 99.752-8.539 109.452c1.375 9.702.308 23.085.308 23.085s-15.967 6.009-18.495-3.468c-2.524-9.474-3.778-103.868-.619-152.052 14.016 10.035 23.89 11.762 30.472 4.673l-3.127 18.31z"/><path fill="#F4A6A9" d="M535.672 262.33s-13.123-21.098 12.049-21.633c1.707-.037 4.538-1.341 6.508-1.153 10.211.975 17.367 2.3 24.812 5.523 2.805 1.213 3.127 7.715 2.717 10.742l-2.416 9.744-43.67-3.223z"/><path fill="#F4A6A9" d="M558.302 246.663l-.807.115a5 5 0 01-5.646-4.231l-2.199-15.316c-.39-2.714 1.518-5.256 4.231-5.646l.804-.117c2.719-.39 5.26 1.515 5.649 4.229l4.63 15.43c.39 2.717-3.943 5.146-6.662 5.536"/><path fill="#E37A7B" d="M550.766 235.944s6.553.233 10.912-5.982c0 0-4.26 9.521-10.249 10.258l-.663-4.276z"/><path fill="#1F274A" d="M535.316 213.507s-2.092 10.938 7.746 13.439c9.836 2.5 7.889-23.122 7.889-23.122l-15.635 9.683z"/><path fill="#F4A6A9" d="M560.596 203.841c-3.012-3.827-6.782-4.273-9.832-1.74-3.546-1.169-7.259 1.166-9.43 6.593-3.026 7.559-2.367 19.152 2.021 24.732 1.919 2.436 4.443 2.812 6.758 2.699 2.164-.104 4.282-.685 6.243-1.604 7.022-3.306 7.316-2.229 9.331-7.262 3.027-7.555-.701-17.84-5.091-23.418"/><path fill="#1F3B78" d="M557.125 207.67c.434 6.132 2.041 10.239 6.557 12.687 0 0-2.12 9.824-1.368 11.938 0 0 16.485-2.468 11.66-18.957-6.009-20.529-16.131-8.704-16.131-8.704l-.718 3.036z"/><path fill="#1F3B78" d="M561.804 209.076c-8.692-2.437-15.431-6.588-26.659 7.547-1.248-1.672-.508-5.354 1.797-7.565 4.814-4.62 7.93-9.631 13.678-11.586l1.42-.317c8.571-1.914 13.768.908 17.054 9.052.288.716 2.351 3.903 2.505 4.515l-2.955-.622c1.231 4.891-1.946-2.259-6.84-1.024"/><path fill="#F4A6A9" d="M567.805 222.404c-.423 2.608-2.349 4.467-4.303 4.152-1.953-.317-3.196-2.687-2.775-5.296.421-2.608 2.347-4.469 4.302-4.153 1.952.316 3.197 2.685 2.776 5.297m-14.33-11.715c.251.317.672.4.935.188l6.828-5.559c.263-.213.271-.646.02-.961-.251-.314-.67-.398-.935-.188l-6.83 5.56c-.262.21-.27.647-.018.96"/><path fill="#E75187" d="M497.537 315.727s3.221 2.898 5.485 9.5c.732 2.129 3.221 3.057 5.127 1.859 4.829-3.025 12.61-7.959 14.483-9.518 2.762-2.301 11.908-27.158 11.908-27.158l8.067-49.932s-14.012 2.996-16.073 14.274c-3.021 16.514-9.199 30.439-9.738 31.896-.533 1.457-7.441 17.414-11.512 20.791-4.061 3.377-10.298 5.023-7.747 8.288"/><path fill="#E75187" d="M544.763 239.826c1.244-.255 2.348.846 2.08 2.087-1.183 5.453-2.862 17.459 5.021 18.246 8.534.852 12.713-13.635 13.857-18.429a1.438 1.438 0 011.838-1.033l6.256 1.979 8.089 23.798s-6.997 19.56-4.354 25.776c2.642 6.215 10.419 19.451 9.316 21.864-1.101 2.407-1.966 7.94-27.176 14.985-4.697 1.312-30.913-.717-32.374-5.778-1.461-5.064 5.906-26.009 5.677-31.992-.229-5.985-6.416-13.812-3.208-24.397 3.208-10.589 10.293-25.688 10.293-25.688l4.685-1.418z"/><path fill="#037D84" d="M564.406 366.562c2.537-1.022 11.867-7.787 13.864-10.203 6.991-6.588 11.326-16.979 11.504-30.035.396-28.652-19.316-59.262-44.025-68.369-11.52-4.241-22.082-3.061-30.13 2.305-.823.368-17.9 11.26-17.9 11.26-2.465 2.453 2.532 1.194.843 4.574-3.64 6.12-5.784 13.9-5.908 22.983-.392 28.653 19.319 59.262 44.028 68.366 10.405 3.834 20.031 3.233 27.724-.881"/><path fill="#00B4BF" d="M526.948 372.611c-24.709-9.104-44.421-39.715-44.027-68.368.394-28.651 20.741-44.499 45.451-35.394 24.709 9.104 44.425 39.713 44.027 68.368-.391 28.654-20.741 44.499-45.451 35.394"/><path fill="#F4A6A9" d="M570.734 340.109c-1.618-1.598-1.635-4.228-.037-5.842l3.502-3.552a4.143 4.143 0 015.85-.036c1.616 1.596 1.635 4.228.039 5.844l-3.505 3.547a4.145 4.145 0 01-5.849.039"/><path fill="#F4A6A9" d="M580.151 245.956s22.524 27.807 26.343 42.96c3.699 14.671-25.893 46.968-25.893 46.968l-7.131-4.19c9.39-11.61 15.012-25.771 17.721-41.893l-18.783-30.09 7.743-13.755z"/><path fill="#E75187" d="M569.891 263.698s14.445 16.614 17.668 26.612c3.225 9.996-8.859 30.43-10.701 35.226-1.113 2.897 6.639 10.208 13 3.221 17.047-18.719 20.153-37.837 18.215-43.878-1.412-4.398-14.429-27.115-16.956-30.126-2.528-3.009-4.772-10.432-21.983-12.96l.757 21.905z"/><path fill="#4263AC" d="M474.391 353.311L298.64 325.582c-4.669-.831-8.487 2.304-8.487 6.96v48.03c0 4.656 3.818 9.146 8.487 9.976l80.844 14.356c.286.082.575.146.869.199l94.038 16.701c4.668.827 8.488-2.306 8.488-6.962v-51.561c0-4.651-3.82-9.142-8.488-9.97"/><path fill="#154A84" d="M116.317 474.74L.975 532.442a1.764 1.764 0 101.582 3.154l115.722-57.894a31.34 31.34 0 01-1.962-2.962m374.302 31.609c-.457 0-.91.176-1.257.525l-39.468 40.124a1.763 1.763 0 002.515 2.474l39.467-40.124a1.76 1.76 0 00-.021-2.494 1.74 1.74 0 00-1.236-.505M150.936 87.611c-.958 0-1.744.764-1.764 1.725a1.763 1.763 0 001.725 1.804l69.333 1.511h.038a1.765 1.765 0 00.038-3.53l-69.333-1.51h-.037m-12.01 149.924a1.83 1.83 0 00-.428.053l-67.296 16.753a1.761 1.761 0 00-1.286 2.139 1.76 1.76 0 002.138 1.286l67.294-16.754a1.76 1.76 0 001.286-2.137 1.761 1.761 0 00-1.708-1.34M335.763 480.83c-.358 0-.72.105-1.03.332l-91.128 65.642a1.758 1.758 0 00-.397 2.462 1.76 1.76 0 002.464.399l91.127-65.639a1.767 1.767 0 00.397-2.467 1.767 1.767 0 00-1.433-.729" opacity=".1"/><path fill="#FFF" d="M505.754 116.703c-2.292 15.039-17.206 23.897-33.311 19.781-16.104-4.115-27.3-19.643-25.007-34.686 2.292-15.042 17.206-23.9 33.309-19.783 16.107 4.116 27.302 19.647 25.009 34.688"/><path fill="#1F3B78" d="M465.035 105.134l8.814 15.717a.702.702 0 001.224.009l13.069-22.513a.703.703 0 00-.257-.963.704.704 0 00-.964.257l-12.45 21.439-8.207-14.638a.707.707 0 00-.961-.271.719.719 0 00-.268.963"/><path fill="#FFF" d="M342.077 365.797l-1.543-.162c-.419 3.938-2.146 7.129-4.706 9.377-2.56 2.242-5.966 3.538-9.799 3.539-1.454 0-2.966-.186-4.517-.583-4.559-1.165-8.569-3.938-11.434-7.544-2.862-3.605-4.555-8.023-4.553-12.424 0-.593.032-1.186.095-1.777.42-3.938 2.147-7.131 4.705-9.377 2.562-2.244 5.969-3.539 9.802-3.539 1.452 0 2.966.188 4.517.582 4.557 1.163 8.569 3.936 11.43 7.543 2.864 3.606 4.559 8.025 4.555 12.422 0 .596-.029 1.188-.095 1.781l1.543.162 1.542.162c.072-.703.108-1.404.108-2.105-.001-5.192-1.971-10.248-5.223-14.35-3.254-4.097-7.815-7.264-13.091-8.615a21.097 21.097 0 00-5.286-.687c-4.534 0-8.701 1.552-11.846 4.312-3.147 2.752-5.26 6.715-5.746 11.385a20.53 20.53 0 00-.107 2.104c.004 5.191 1.972 10.25 5.224 14.35 3.256 4.102 7.813 7.269 13.09 8.621a21.32 21.32 0 005.287.682c4.538.004 8.701-1.551 11.846-4.311 3.146-2.754 5.258-6.714 5.744-11.383l-1.542-.165zm14.779-5.901l107.686 16.816a1.547 1.547 0 001.771-1.293 1.548 1.548 0 00-1.291-1.771l-107.688-16.815a1.55 1.55 0 10-.478 3.063m1.752 23.434l90.543 14.141a1.551 1.551 0 00.479-3.065l-90.545-14.139c-.848-.135-1.64.445-1.771 1.291s.45 1.64 1.294 1.772"/><path opacity=".1" fill="#1F3B78" d="M181.648 422.286c-38.058 0-68.913 17.805-68.913 39.768 0 4.438 1.259 8.701 3.58 12.687l32.319-16.168-32.316 16.169a31.326 31.326 0 001.96 2.963l64.24-32.138a1.773 1.773 0 000 .001l-64.241 32.14c10.53 14.182 34.941 24.117 63.371 24.117 38.062 0 68.914-17.806 68.914-39.771 0-21.963-30.854-39.768-68.914-39.768z"/><path fill="#39519F" d="M211.759 467.979c.565-.322 8.758-3.855 14.413-3.855 2.789 0 23.046 12.421 24.212 14.141 2.616 3.854-1.216 8.094-1.216 8.094l-.002-.004c-.914 1.728-3.021 3.116-7.595 2.709l-33.649-8.885v-11.326c0-.002 3.226-.525 3.837-.874"/><path fill="#39519F" d="M199.132 466.967c-.653-.011-9.533.836-14.488 3.559-2.447 1.343-14.212 21.976-14.407 24.042-.434 4.64 4.966 6.508 4.966 6.508l.002-.002c1.637 1.071 4.148 1.275 7.962-1.281l25.206-23.981-5.456-9.923c-.003-.003-3.082 1.089-3.785 1.078"/><path fill="#1F3C8A" d="M190.236 414.52s34.204-19.715 46.321-18.362c12.117 1.349 14.877 6.562 15.952 9.933 1.074 3.373-50.002 47.057-76.386 46.75l-9.971 2.912s-41.518 12.953-42.765 2.95c-1.312-10.511 15.992-26.694 24.429-31.291 8.44-4.601 42.42-12.892 42.42-12.892"/><path fill="#1F3C8A" d="M250.647 406.249s-13.498-12.567-37.731 26.058-26.688 43.226-26.688 43.226l24.85-4.906c-.004-.003 51.84-55.182 39.569-64.378"/><path fill="#1F3C8A" d="M123.39 458.7s5.378-12.953 25.902-7.02c23.615 6.83 64.148 13.25 64.148 13.25s2.04 14.324-1.377 17.344c-12.397 1.783-79.654.903-88.675-13.767-2.95-4.797.002-9.807.002-9.807"/><path fill="#F8C0B0" d="M211.304 353.927l9.238 24.851c1.52 5.399 7.885 7.729 12.534 4.578l10.097-6.84.903 13.437-14.682 10.044c-5.451 3.729-12.936 1.927-16.083-3.879-5.525-10.196-12.948-23.949-12.948-24.344.002-.628 10.941-17.847 10.941-17.847"/><path fill="#FFF379" d="M205.96 339.197l16.262 30.473c-2.656 10.604-8.404 15.998-15.666 18.848l-6.17-41.219 5.574-8.102z"/><path fill="#FFF379" d="M207.124 412.034c-3.785-24.804 1.888-25.124 4.18-44.81 0-31.369-11.856-42.979-31.627-35.77l-8.169 2.169c-23.862 12.851-35.981 12.204-31.712 37.45l3.686 48.785c-.001 28.494 65.162 25.667 63.642-7.824"/><path fill="#FFF379" d="M155.532 380.623l-10.286 42.705-1.233 4.156-1.512-20.582z"/><path fill="#F8C0B0" d="M142.889 350.428s-17.161 21.309-21.944 66.236c-1.313 12.354 9.979 22.294 22.041 19.312l31.812-8.313-.069-7.897s-40.251 10.566-37.232-2.518c3.397-14.748 30.302-54.855 5.392-66.82"/><path fill="#ADC7E6" d="M226.019 398.716l14.151-4.616c.879-.205 1.732-1.216 1.915-2.252l4.702-27.171c.181-1.038-.388-1.712-1.263-1.509l-14.625 3.436c-.879.203-1.732 1.213-1.913 2.252l-4.683 27.039c-.118.687.189 1.166.587 1.549l1.129 1.272z"/><path fill="#BAD3EF" d="M238.479 374.436s3.438 18.429 3.614 17.389l5.914-26.869-1.562-1.641c-.224-.187-.541-.256-.907-.17l-14.625 3.433c-.432.101-.854.396-1.195.784l8.761 7.074z"/><path fill="#FFF" d="M227.024 398.992l14.598-3.442c.875-.207 1.696-1.224 1.877-2.263l4.704-27.173c.179-1.035-.368-1.704-1.244-1.5l-14.588 3.446c-.874.203-1.69 1.224-1.871 2.262l-4.702 27.173c-.181 1.038.351 1.7 1.226 1.497"/><path fill="#1F3C8A" d="M227.852 398.803l14.155-3.336c.849-.201 1.646-1.188 1.821-2.193l4.561-26.352c.173-1.007-.355-1.654-1.208-1.457l-14.145 3.342c-.851.199-1.644 1.188-1.814 2.193l-4.562 26.352c-.174 1.005.342 1.651 1.192 1.451"/><path fill="#F8C0B0" d="M242.756 389.4a4.17 4.17 0 004.826-3.361l1.18-6.609a4.169 4.169 0 00-3.366-4.822c-2.252-.4-4.424 1.109-4.824 3.36l-1.181 6.611a4.17 4.17 0 003.365 4.821"/><path fill="#FFF379" d="M157.383 373.662l-11.927 33.788c-1.69 2.622-26.081-9.72-23.997-13.743.368-.71 13.35-41.525 27.312-48.114 11.343-5.35 14.877 12.673 8.612 28.069"/><path fill="#F8C0B0" d="M167.868 422.869l-.359 1.493c-.657 2.729 1.04 5.504 3.77 6.161l5.599 1.346c2.729.659 5.506-1.035 6.163-3.766l.357-1.495c.659-2.73-1.039-5.505-3.77-6.162l-5.595-1.349c-2.731-.654-5.506 1.04-6.165 3.772"/><path fill="#FFF" d="M233.341 374.857c.489-.141.971-.715 1.069-1.275l.526-2.957c.104-.562-.217-.904-.703-.764s-.972.714-1.069 1.273l-.528 2.954c-.103.564.217.91.705.769m-45.561-33.718c.729 4.396-1.181 9.457-8.548 11.033-9.131 1.95-15.479-9.631-12.294-12.751 2.926-2.862 2.478-1.825 8.712-3.723 6.239-1.895 10.878-2.105 12.13 5.441"/><path fill="#243883" d="M181.127 333.768s-4.026 1.758-5.677 1.543c-1.654-.213-13.022-15.979-1.816-28.91 7.1-8.188 21.926 2.123 21.926 2.123l-14.433 25.244z"/><path fill="#F8C0B0" d="M180.619 326.878c-1.168 9.037 3.835 13.886 11.173 10.824 7.338-3.06 14.23-12.867 15.396-21.904 1.169-9.038-3.834-13.886-11.172-10.825-7.335 3.059-14.23 12.868-15.397 21.905"/><path fill="#F8C0B0" d="M173.244 320.664c-1.168 9.037 6.197 15.67 13.534 12.609 7.338-3.061 14.233-12.864 15.399-21.905 1.17-9.037-3.835-13.886-11.171-10.823-7.338 3.06-16.594 11.082-17.762 20.119"/><path fill="#F8C0B0" d="M175.726 347.757l.887.369c3.005 1.25 6.479-.185 7.729-3.185l7.043-16.912c1.25-2.997-.182-6.477-3.185-7.727l-.889-.367c-3.001-1.25-6.477.182-7.727 3.184l-9.16 15.258c-1.248 2.998 2.301 8.131 5.302 9.38"/><path fill="#F8C0B0" d="M171.384 323.826a4.013 4.013 0 007.96 1.027 4.013 4.013 0 00-7.96-1.027"/><path fill="#243883" d="M196.856 308.691s-4.325 20.762-24.959 11.152c0 0-8.998-14.812 8.438-23.693 15.371-7.83 23.817 9.162 23.817 9.162l-7.296 3.379z"/><path fill="#243883" d="M206.271 319.973s-1.02-7.344-9.415-11.281l7.299-3.381s6.854 2.337 2.116 14.662"/><path fill="#F09982" d="M186.8 338.76s-7.601-1.576-10.861-9.955c0 0 2.212 12.15 8.895 14.688l1.966-4.733z"/></svg>