<svg width="584" height="646" viewBox="0 0 584 646" fill="none" xmlns="http://www.w3.org/2000/svg">
<path d="M493.495 365.87C474.602 369.073 474.212 403.916 455.338 423.814C427.108 453.573 394.974 438.617 371.771 487.932C347.811 538.851 416.258 563.27 443.962 546.964C552.322 483.212 567.197 353.374 493.495 365.87Z" fill="#63BCA1" fill-opacity="0.8"/>
<path d="M50.0784 184.064C38.7381 180.717 54.9804 150.407 66.4306 156.062C76.4915 161.014 59.1017 186.736 50.0784 184.064Z" fill="#63BCA1" fill-opacity="0.8"/>
<path d="M83.3999 135.369C91.7532 149.433 146.606 117.158 149.517 103.61C152.011 91.9894 137.205 85.5703 126.505 88.5905C115.16 91.793 74.0439 119.61 83.3999 135.369Z" fill="#63BCA1" fill-opacity="0.8"/>
<path d="M245.037 545.847C330.217 534.296 333.802 462.873 349.377 441.326C379.223 400.039 404.549 405.07 428.482 377.837C463.45 338.032 510.838 238.909 473.219 135.404C451.024 74.3447 365.133 15.3067 308.109 37.3288C242.277 62.7494 240.574 93.0662 200.635 118.839C153.835 149.042 113.728 148.165 84.1906 183.162C41.5399 233.7 40.6846 298.342 66.3298 346.995C86.1643 384.624 120.524 401.388 129.64 422.435C142.433 451.892 137.321 467.909 144.123 485.867C157.792 521.91 185.318 553.948 245.037 545.847Z" fill="#63BCA1" fill-opacity="0.8"/>
<g clip-path="url(#clip0)">
<path d="M472.09 276.364C470.932 271.045 468.555 263.054 463.231 254.625C458.425 247.016 452.024 236.883 441.423 235.468C436.05 234.75 427.457 235.986 424.795 241.853C422.996 245.817 424.173 251.303 427.384 254.353C431.337 258.105 435.63 255.576 446.602 257.342C453.446 258.445 461.608 259.759 466.229 265.766C467.477 267.388 470.846 272.444 469.364 282.07C470.273 280.168 471.182 278.266 472.09 276.364Z" fill="#5D8E7F"/>
<path d="M478.299 277.047C480.702 267.11 483.951 257.394 488.01 248.007C496.614 228.142 503.653 221.894 505.797 220.086C507.425 218.713 512.566 214.558 520.342 211.956C530.967 208.4 537.9 210.622 539.652 211.983C540.226 212.439 540.714 212.992 541.094 213.618C541.472 214.379 541.703 215.204 541.775 216.051C542.106 220.208 538.205 223.532 536.46 224.977C531.894 228.76 528.545 228.825 519.899 231.907C515.143 233.605 510.444 235.277 505.486 238.224C503.74 239.262 496.618 243.635 491.074 250.758C481.028 263.665 481.26 279.052 481.567 284.282C480.479 281.87 479.39 279.459 478.299 277.047Z" fill="#456A5E"/>
<path d="M483.721 276.636C483.703 275.363 483.721 264.439 491.894 258.808C497.104 255.219 503.054 255.553 504.774 255.649C510.652 255.978 511.18 258.349 519.801 260.234C524.681 261.302 528.989 262.185 533.606 260.298C534.872 259.781 539.65 257.828 540.444 253.81C541.194 250.036 537.991 246.615 537.484 246.071C530.184 238.258 510.312 240.541 497.238 249.666C494.765 251.392 485.157 258.293 481.632 270.861C480.864 273.608 480.429 276.436 480.337 279.285L483.721 276.636Z" fill="#5D8E7F"/>
<path d="M477.724 274.958C477.154 269.105 476.059 263.315 474.453 257.657C472.754 251.671 470.684 246.985 466.544 237.611C462.478 228.407 460.398 223.744 458.06 220.798C456.901 219.339 446.436 206.41 438.741 209.385C436.245 210.35 434.34 212.883 433.936 215.397C433.085 220.69 438.921 225.489 443.238 228.949C453.677 237.315 458.109 234.703 464.602 241.381C469.395 246.31 471.076 251.877 473.189 259.316C474.565 264.158 476.106 271.575 475.847 280.919C476.473 278.933 477.099 276.946 477.724 274.958Z" fill="#456A5E"/>
<path d="M472.677 277.047C471.6 270.99 471.019 264.856 470.939 258.705C470.824 249.756 470.66 237.044 476.357 223.959C478.757 218.446 483.34 212.744 492.508 201.337C505.917 184.653 508.97 183.831 511.931 175.965C515.513 166.444 516.93 151.996 509.886 147.025C505.722 144.086 500.073 145.497 498.949 145.802C485.961 149.338 480.617 168.017 475.642 186.255C473.204 195.188 467.653 217.916 468.077 252.083C468.221 263.625 469.006 273.21 469.713 279.901L472.677 277.047Z" fill="#456A5E"/>
<path d="M472.226 279.896C475.16 272.099 476.861 263.894 477.269 255.576C477.65 247.636 476.743 241.386 475.634 235.332C470.151 205.386 466.57 185.823 451.373 174.463C448.164 172.065 441.165 166.99 433.109 168.621C432.223 168.8 425.386 170.292 422.477 176.093C418.624 183.781 424.709 192.974 425.579 194.289C432.938 205.406 442.944 201.956 455.189 211.962C466.192 220.956 469.836 233.329 471.545 239.136C476.993 257.639 472.18 273.358 470.046 279.217L472.226 279.896Z" fill="#5D8E7F"/>
<path d="M466.502 276.364C465.467 273.035 463.299 267.661 458.597 262.641C455.995 259.865 448.515 251.88 441.014 253.81C436.693 254.922 432.791 259.215 433.518 261.962C434.348 265.098 441.135 265.931 444.694 265.91C449.635 265.881 451.055 264.187 453.817 264.428C457.346 264.736 461.916 268.102 466.642 281.255C466.594 279.625 466.548 277.994 466.502 276.364Z" fill="#456A5E"/>
<path d="M474.415 314.796L484.228 314.783C485.562 314.745 488.245 314.46 490.233 312.505C491.113 311.641 491.578 310.723 492.193 309.219C493.896 305.054 495.813 296.167 497.082 290.596C497.877 287.108 498.531 283.684 499.161 280.066C499.415 278.606 500.189 276.024 498.854 274.224C498.353 273.549 497.681 273.137 497.457 273.001C495.782 271.992 493.982 272.204 493.271 272.221C488.506 272.333 484.562 272.598 474.415 272.598C464.64 272.598 460.324 272.333 455.56 272.221C454.849 272.204 453.049 271.992 451.373 273.001C451.149 273.137 450.477 273.549 449.976 274.224C448.641 276.024 449.416 278.606 449.67 280.066C450.3 283.684 450.954 287.108 451.748 290.596C453.018 296.167 454.936 305.054 456.638 309.219C457.251 310.723 457.718 311.641 458.597 312.505C460.586 314.46 463.268 314.747 464.603 314.783L474.416 314.796" fill="#302D2C"/>
</g>
<g clip-path="url(#clip1)">
<path d="M428.783 356.55C429.224 355.363 429.401 332.05 429.401 332.05H424.401C424.401 332.05 426.6 356.336 427.033 356.848C427.287 357.148 428.555 357.163 428.783 356.55Z" fill="#552300"/>
<path d="M344.758 355.976C344.317 354.79 344.14 331.477 344.14 331.477H349.14C349.14 331.477 346.942 355.763 346.508 356.275C346.254 356.575 344.986 356.589 344.758 355.976Z" fill="#552300"/>
<path d="M335.405 173.293C333.384 180.878 333.975 192.952 334.111 197.349C334.7 216.308 338.321 251.5 338.416 265.868C338.468 273.611 338.99 278.249 339.492 279.226C340.334 280.861 343.601 281.487 345.919 281.534C348.238 281.581 426.897 285.203 429.834 282.321C430.489 281.678 430.594 280.9 431.017 272.004C432.526 240.238 437.615 214.743 436.491 183.677C436.373 180.397 435.583 171.297 433.813 168.823C430.644 164.395 424.346 165.025 423.059 165.04L344.72 165.926C345.179 165.917 337.461 165.582 335.405 173.293Z" fill="#40A989"/>
<path d="M428.989 281.993C428.989 281.993 428.654 291.622 427.364 297.583C425.897 304.358 425.496 306.685 421.935 305.73C418.374 304.775 350.801 304.354 347.091 306.934C345.611 307.965 344.08 305.558 343.166 298.336C342.252 291.114 342.73 280.732 342.73 280.732C342.73 280.732 382.553 280.602 386.893 280.732L428.989 281.993Z" fill="#E6DEDA"/>
<path d="M437.688 245.998C441.147 255.111 440.661 311.301 436.654 327.846C435.43 332.896 430.447 333.349 426.145 333.578C421.844 333.807 352.086 332.45 345.921 332.89C341.643 333.196 338.034 328.598 337.317 326.241C333.016 312.084 330.53 264.798 332.944 250.125C334.091 243.16 341.081 243.533 342.766 249.895C345.666 260.846 341.511 280.961 344.415 299.876C345.078 303.63 346.894 303.153 348.43 303.315C348.878 303.363 424.64 302.627 424.64 302.627C424.64 302.627 426.169 302.78 427.579 295.061C430.827 277.281 426.504 253.182 427.937 245.539C429.1 239.345 435.551 240.369 437.688 245.998Z" fill="#40A989"/>
</g>
<g clip-path="url(#clip2)">
<path d="M198.783 357.55C199.224 356.363 199.401 333.05 199.401 333.05H194.401C194.401 333.05 196.6 357.336 197.033 357.848C197.287 358.148 198.555 358.163 198.783 357.55Z" fill="#552300"/>
<path d="M114.618 356.5C114.176 355.314 114 332 114 332H119C119 332 116.801 356.286 116.367 356.799C116.114 357.098 114.845 357.113 114.618 356.5Z" fill="#552300"/>
<path d="M105.405 174.293C103.384 181.878 103.975 193.952 104.111 198.349C104.7 217.308 108.321 252.5 108.416 266.868C108.468 274.611 108.99 279.249 109.492 280.226C110.334 281.861 113.601 282.487 115.919 282.534C118.238 282.581 196.897 286.203 199.834 283.321C200.489 282.678 200.594 281.9 201.017 273.004C202.526 241.238 207.615 215.743 206.491 184.677C206.373 181.397 205.583 172.297 203.813 169.823C200.644 165.395 194.346 166.025 193.059 166.04L114.72 166.926C115.179 166.917 107.461 166.582 105.405 174.293Z" fill="#40A989"/>
<path d="M198.989 282.993C198.989 282.993 198.654 292.622 197.364 298.583C195.897 305.358 195.496 307.685 191.935 306.73C188.374 305.775 120.801 305.354 117.091 307.934C115.611 308.965 114.08 306.558 113.166 299.336C112.252 292.114 112.73 281.732 112.73 281.732C112.73 281.732 152.553 281.602 156.893 281.732L198.989 282.993Z" fill="#E6DEDA"/>
<path d="M207.688 246.998C211.147 256.111 210.661 312.301 206.654 328.846C205.43 333.896 200.447 334.349 196.145 334.578C191.844 334.807 122.086 333.45 115.921 333.89C111.643 334.196 108.034 329.598 107.317 327.241C103.016 313.084 100.53 265.798 102.944 251.125C104.091 244.16 111.081 244.533 112.766 250.895C115.666 261.846 111.511 281.961 114.415 300.876C115.078 304.63 116.894 304.153 118.43 304.315C118.878 304.363 194.64 303.627 194.64 303.627C194.64 303.627 196.169 303.78 197.579 296.061C200.827 278.281 196.504 254.182 197.937 246.539C199.1 240.345 205.551 241.369 207.688 246.998Z" fill="#40A989"/>
</g>
<g clip-path="url(#clip3)">
<path d="M370.461 191.255C371.098 192.81 371.48 194.458 371.592 196.135C371.703 197.777 371.788 199.058 371.244 200.58C370.593 202.41 369.584 203.043 368.895 205.461C368.741 206.004 368.625 206.557 368.547 207.116L384.729 200.406C384 199.947 382.937 199.132 382.206 197.791C381.747 196.948 381.771 196.549 381.162 193.869C380.446 190.732 380.262 190.638 380.292 189.773C380.325 188.867 380.586 187.375 381.945 185.59L370.461 191.255Z" fill="#FFC5A8"/>
<path d="M364.545 166.068C362.317 172.457 360.784 177.208 360.369 178.705C360.15 179.471 360.033 180.262 360.021 181.058C360.015 181.673 360.073 182.286 360.195 182.888L362.37 181.93C362.37 181.93 362.887 182.514 363.066 182.801C363.508 183.509 363.182 184.462 363.066 184.893C362.449 187.207 363.827 189.831 363.936 190.035C365.255 192.475 368.077 193.19 368.373 193.259C370.862 193.848 372.917 192.817 375.159 191.691C379.11 189.708 382.293 186.462 382.293 186.462C382.293 186.462 382.483 183.384 382.641 181.32C383.136 174.904 383.63 174.503 383.076 172.866C382.693 171.733 381.835 170.744 380.118 168.77C377.206 165.421 375.751 163.746 373.767 163.366C371.453 162.924 369.08 163.957 366.633 165.022C365.919 165.334 365.222 165.683 364.545 166.068Z" fill="#FFC5A8"/>
<path d="M338.097 233.611C335.808 231.764 334.12 231.083 332.964 230.822C332.61 230.741 331.746 230.572 331.137 229.863C330.599 229.239 330.648 228.657 330.441 227.771C330.441 227.771 329.8 225.236 327.57 223.152C327.07 222.684 326.733 222.514 326.137 221.83C325.736 221.37 325.502 221.003 325.308 221.061C325.091 221.127 325.056 221.693 325.077 222.049C325.151 223.321 326.046 223.726 325.917 224.721C325.901 224.854 325.848 225.263 325.541 225.564C324.979 226.113 323.981 225.895 322.931 225.651C322.013 225.438 321.18 225.245 320.175 224.634C318.294 223.492 318.406 222.465 316.347 221.061C315.657 220.59 314.4 219.733 313.767 220.16C313.288 220.484 313.368 221.404 313.448 222.31C313.506 222.975 313.607 224.003 314.231 225.274C315.684 228.237 318.668 229.829 319.566 230.299C322.209 231.675 322.585 230.894 325.134 232.303C327.463 233.591 328.944 235.173 329.832 236.138C331.224 237.651 332.395 239.352 333.312 241.193C334.908 238.667 336.503 236.14 338.097 233.611Z" fill="#FFC5A8"/>
<path d="M347.058 260.773C345.814 261.275 344.534 261.683 343.23 261.993C340.414 262.664 339.34 262.436 335.342 262.923C330.064 263.566 328.886 264.335 328.208 264.898C327.666 265.349 326.147 266.65 326.004 268.675C325.982 268.99 325.858 270.746 326.874 271.522C327.975 272.363 329.586 271.42 332.674 270.36C336.021 269.211 338.634 268.771 342.998 268.036C345.293 267.65 347.261 267.45 348.74 267.338C348.182 265.15 347.621 262.961 347.058 260.773Z" fill="#FFC5A8"/>
<path d="M362.022 332.354C363.195 334.132 364.236 335.606 365.038 336.711C368.033 340.836 369.529 342.899 370.78 343.974C371.409 344.515 371.891 344.86 372.23 345.601C373.204 347.729 371.723 350.324 371.302 351.062C369.883 353.551 368.578 353.606 363.878 357.105C363.878 357.105 358.845 360.852 353.322 363.496C353.081 363.611 352.5 363.881 352.011 363.647C351.222 363.271 351.187 361.829 351.176 361.405C351.098 358.209 354.013 355.13 355.874 353.212C356.777 352.28 358.581 350.533 360.398 347.983C360.8 347.419 361.321 346.651 361.355 345.608C361.378 344.835 361.131 343.921 359.702 342.173C358.419 340.607 356.914 339.236 355.236 338.106L362.022 332.354Z" fill="#FFC5A8"/>
<path d="M313.364 331.076C312.837 332.095 312.194 333.05 311.45 333.922C310.534 334.995 310.263 335.003 309.42 336.014C308.865 336.68 307.804 337.977 307.245 339.82C306.86 341.089 307.197 341.021 306.78 343.073C306.453 344.69 306.197 345.893 305.331 346.995C304.598 347.929 303.735 348.398 303.185 348.681C300.154 350.233 296.819 351.101 294.398 351.818C290.799 352.88 287.104 353.598 283.523 354.715C283.129 354.838 282.713 354.871 282.305 354.81C282.08 354.775 281.783 354.73 281.58 354.548C281.081 354.113 281.305 353.098 281.376 352.777C282.191 349.108 288.54 344.555 288.54 344.555C288.54 344.555 292.152 341.965 297.356 338.977C298 338.608 298.327 338.402 298.98 337.99C300.067 337.305 300.617 336.955 300.951 336.624C301.653 335.932 301.508 335.529 302.256 333.748C302.806 332.441 303.396 331.453 304.577 329.478C304.918 328.908 305.211 328.439 305.418 328.113L313.364 331.076Z" fill="#FFC5A8"/>
<path d="M388.01 182.511C387.836 183.818 387.607 185.443 386.444 186.927C385.977 187.522 384.934 188.851 383.892 188.67C382.252 188.384 381.694 184.552 381.63 184.08C381.268 181.442 381.946 179.278 381.339 179.054C381.133 178.978 380.876 179.163 380.702 179.315C380.926 178.814 381.094 178.29 381.203 177.752C381.351 177.011 381.331 176.394 381.282 175.19C381.213 173.499 381.061 172.863 380.817 172.285C380.502 171.536 380.227 171.344 380.006 171.268C379.538 171.11 379.038 171.379 378.759 171.53C378.43 171.709 378.143 171.957 377.918 172.256C377.813 171.735 377.677 171.221 377.511 170.717C377.131 169.558 376.608 168.507 376.293 168.044C374.845 165.911 370.072 164.876 366.897 166.475C365.853 166.998 364.75 167.929 363.417 167.579C362.837 167.427 362.455 167.095 362.084 166.765C360.471 165.335 360.061 163.38 359.996 163.047C359.32 159.6 361.666 156.914 361.794 156.772C363.869 154.468 366.742 154.311 367.416 154.274C370.519 154.104 370.925 155.768 375.42 156.598C378.9 157.24 382.496 157.004 382.496 157.004C384.921 156.846 386.471 156.426 388.006 157.411C389.025 158.066 389.496 158.991 389.92 159.852C391.383 162.815 390.925 165.865 390.616 167.754C390.496 168.489 390.544 167.937 388.934 174.028C388.357 176.214 388.224 176.761 388.122 177.63C387.847 179.971 388.288 180.35 388.01 182.511Z" fill="#1F1900"/>
<path d="M384.089 188.948C384.007 188.948 383.924 188.941 383.843 188.926C382.117 188.625 381.512 185.167 381.368 184.115C381.194 182.837 381.258 181.65 381.304 180.784C381.334 180.247 381.384 179.349 381.246 179.302C381.221 179.293 381.1 179.312 380.87 179.515C380.826 179.554 380.769 179.577 380.709 179.58C380.65 179.582 380.591 179.564 380.543 179.529C380.495 179.493 380.46 179.443 380.445 179.385C380.43 179.327 380.435 179.266 380.46 179.211C380.676 178.728 380.838 178.223 380.943 177.704C381.084 177.006 381.067 176.434 381.017 175.203C380.951 173.567 380.81 172.952 380.574 172.389C380.255 171.633 380.011 171.55 379.919 171.518C379.558 171.396 379.136 171.625 378.875 171.762C378.578 171.923 378.32 172.146 378.118 172.416C378.087 172.456 378.046 172.487 377.999 172.504C377.951 172.521 377.9 172.524 377.851 172.513C377.802 172.501 377.758 172.476 377.723 172.44C377.688 172.404 377.664 172.358 377.654 172.309C377.552 171.799 377.418 171.295 377.256 170.8C376.895 169.704 376.386 168.658 376.07 168.193C375.408 167.219 373.957 166.444 372.188 166.119C370.322 165.776 368.434 165.991 367.007 166.71C366.798 166.816 366.587 166.938 366.364 167.066C365.494 167.569 364.504 168.138 363.343 167.834C362.691 167.659 362.272 167.291 361.903 166.962C360.315 165.553 359.84 163.65 359.728 163.099C359.029 159.491 361.491 156.713 361.596 156.597C362.578 155.51 364.38 154.179 367.402 154.013C369.107 153.919 370.027 154.357 371.19 154.911C372.217 155.401 373.381 155.957 375.468 156.341C378.878 156.97 382.443 156.746 382.479 156.744C382.951 156.713 383.384 156.672 383.802 156.633C385.498 156.475 386.837 156.351 388.147 157.191C389.248 157.898 389.75 158.917 390.154 159.736C391.684 162.838 391.157 166.063 390.874 167.795C390.821 168.124 390.742 168.447 390.64 168.764C390.454 169.41 390.069 170.756 389.187 174.096C388.614 176.26 388.482 176.804 388.381 177.661C388.279 178.478 388.261 179.304 388.327 180.125C388.395 180.931 388.374 181.743 388.265 182.545C388.101 183.8 387.876 185.518 386.645 187.088C386.16 187.707 385.186 188.948 384.089 188.948ZM381.233 178.774C381.299 178.773 381.364 178.785 381.426 178.808C381.926 178.992 381.888 179.679 381.826 180.812C381.777 181.705 381.717 182.817 381.885 184.043C382.094 185.57 382.761 188.207 383.933 188.411C384.824 188.566 385.812 187.303 386.235 186.765C387.378 185.307 387.591 183.671 387.748 182.476C387.852 181.707 387.872 180.929 387.807 180.156C387.738 179.304 387.757 178.447 387.863 177.599C387.968 176.708 388.102 176.154 388.682 173.96C389.566 170.616 389.952 169.267 390.138 168.619C390.235 168.322 390.308 168.018 390.359 167.71C390.633 166.036 391.142 162.917 389.686 159.967C389.291 159.166 388.844 158.259 387.865 157.631C386.707 156.887 385.509 156.998 383.851 157.153C383.428 157.192 382.991 157.233 382.513 157.265C382.477 157.265 378.847 157.496 375.373 156.854C373.22 156.457 371.969 155.861 370.965 155.382C369.827 154.84 369.004 154.448 367.431 154.535C364.587 154.691 362.9 155.93 361.984 156.948C361.886 157.057 359.591 159.649 360.244 162.997C360.344 163.507 360.784 165.27 362.249 166.57C362.591 166.873 362.945 167.186 363.476 167.326C364.433 167.576 365.28 167.086 366.103 166.611C366.323 166.485 366.55 166.354 366.773 166.241C368.299 165.473 370.307 165.24 372.282 165.603C374.186 165.951 375.762 166.811 376.501 167.896C376.828 168.378 377.359 169.439 377.751 170.635C377.867 170.983 377.969 171.346 378.056 171.707C378.229 171.548 378.42 171.411 378.627 171.3C378.934 171.134 379.505 170.826 380.081 171.021C380.468 171.152 380.767 171.511 381.05 172.183C381.311 172.803 381.465 173.464 381.534 175.18C381.583 176.364 381.609 177.017 381.447 177.804C381.381 178.133 381.294 178.458 381.186 178.776L381.233 178.774Z" fill="#302D2C"/>
<path d="M364.806 234.512C364.185 235.977 363.655 236.913 362.428 239.16C359.838 243.903 360.192 243.407 359.296 244.97C357.772 247.629 356.009 250.671 353.148 254.091C350.481 257.281 348.722 258.57 346.942 259.437C346.104 259.845 345.231 260.176 344.332 260.425C344.618 261.137 344.941 261.876 345.318 262.632C346.297 264.612 347.483 266.481 348.856 268.21C349.925 267.374 351.367 266.215 353.032 264.782C354.818 263.247 357.067 261.311 359.355 258.914C362.975 255.121 365.219 251.71 366.43 249.851C368.663 246.407 370.585 242.771 372.172 238.985C373.099 236.782 373.912 234.533 374.608 232.246L366.43 229.573C366.027 231.262 365.484 232.914 364.806 234.512Z" fill="#FEE6E7"/>
<path d="M348.813 268.576L348.652 268.373C347.268 266.629 346.073 264.744 345.085 262.749C344.726 262.023 344.389 261.274 344.09 260.522L343.982 260.251L344.263 260.173C345.146 259.928 346.004 259.603 346.828 259.202C348.323 258.473 350.099 257.331 352.948 253.924C355.853 250.452 357.636 247.34 359.07 244.839C359.476 244.131 359.622 243.854 359.91 243.301C360.258 242.629 360.791 241.614 362.199 239.031L362.519 238.45C363.51 236.637 364.008 235.727 364.568 234.405C365.238 232.822 365.775 231.185 366.173 229.512L366.239 229.237L374.929 232.077L374.854 232.322C374.155 234.617 373.339 236.875 372.41 239.087C370.817 242.888 368.888 246.538 366.645 249.993C365.544 251.685 363.252 255.206 359.54 259.095C357.244 261.5 355.002 263.43 353.2 264.979C351.833 266.156 350.425 267.311 349.014 268.416L348.813 268.576ZM344.684 260.595C344.951 261.245 345.242 261.89 345.554 262.513C346.487 264.398 347.609 266.183 348.902 267.84C350.239 266.789 351.571 265.694 352.864 264.58C354.658 263.037 356.89 261.117 359.168 258.73C362.844 254.877 365.12 251.383 366.214 249.704C368.439 246.276 370.352 242.656 371.932 238.886C372.82 236.775 373.61 234.6 374.281 232.417L366.617 229.909C366.218 231.517 365.693 233.091 365.047 234.616C364.476 235.96 363.974 236.881 362.975 238.706L362.657 239.287C361.251 241.862 360.722 242.875 360.372 243.545C360.081 244.104 359.937 244.383 359.522 245.102C358.079 247.62 356.283 250.753 353.345 254.261C350.434 257.743 348.601 258.92 347.054 259.674C346.29 260.045 345.497 260.353 344.684 260.595Z" fill="#FEE6E7"/>
<path d="M342.012 282.503C343.278 285.954 345.033 290.492 347.319 295.75C349.561 300.904 351.451 304.762 352.974 307.864C353.968 309.887 355.41 312.764 359.934 321.372C362.352 325.967 364.458 329.924 366.126 333.051C365.853 333.331 365.38 333.81 364.778 334.388C362.475 336.598 360.406 338.558 357.411 340.11C356.65 340.505 355.865 340.854 355.062 341.156C349.553 334.21 345.37 328.861 342.795 325.556C337.836 319.188 334.965 315.429 330.093 310.74C327.495 308.24 325.213 306.327 323.655 305.075C329.775 297.553 335.894 290.029 342.012 282.503Z" fill="#693923"/>
<path d="M398.388 264.811C399.128 265.828 400.188 268.079 400.911 270.04C401.628 271.983 402.755 275.125 402.738 279.191C402.729 281.317 402.651 285.652 399.867 289.998C399.154 291.111 396.754 294.709 392.211 296.534C390.239 297.327 388.47 297.441 384.933 297.667C381.547 297.878 378.15 297.781 374.782 297.377C371.476 296.994 370.258 296.615 364.11 295.314C351.652 292.677 348.496 292.507 344.97 293.135C341.06 293.832 339.094 295.085 338.242 295.692C335.296 297.794 334.046 300.499 332.79 303.013C330.519 307.562 327.556 311.74 325.246 316.269C322.935 320.798 319.417 327.136 314.259 334.707C312.358 334.858 310.445 334.681 308.604 334.184C304.735 333.138 302.215 330.929 301.035 329.739C302.979 324.423 304.771 319.511 304.95 319.019C307.985 310.708 311.382 302.521 314.085 294.094C315.047 291.096 316.815 285.39 320.088 278.319C321.591 275.076 322.785 272.892 325.047 270.824C328.788 267.411 333.092 266.456 334.704 266.118C336.927 265.654 338.28 265.723 342.708 265.857C351.044 266.11 356.469 266.269 361.326 266.118C363.579 266.049 367.08 265.87 371.418 265.334C383.947 260.75 395.089 260.276 398.388 264.811Z" fill="#825A48"/>
<path d="M366.198 211.736C366.488 210.357 366.774 208.351 367.677 206.419C367.93 205.824 368.323 205.298 368.823 204.889C369.324 204.479 369.915 204.197 370.548 204.066C371.953 203.718 379.821 201.522 381.728 198.663C381.854 198.475 382.163 197.971 382.685 197.878C383.438 197.746 384.128 198.558 384.729 199.186C385.937 200.447 387.482 201.332 388.818 202.454C390.759 204.083 391.574 204.652 392.364 205.307C396.453 208.701 398.786 213.547 399.041 214.089C401.19 218.648 401.14 222.67 401.085 227.728C401.044 231.526 400.583 231.854 399.693 241.541C399.248 246.395 399.025 248.822 399.084 249.516C399.414 253.376 401.298 264.395 401.477 265.813C401.496 265.964 401.576 266.351 401.39 266.728C401.137 267.243 400.541 267.464 399.519 267.731C398.284 268.054 397.665 268.215 397.04 268.253C388.902 268.762 385.643 268.341 385.643 268.341C380.711 267.69 372.45 267.139 361.217 266.554C358.842 265.517 356.996 264.533 355.823 263.874C348.435 259.727 344.018 255.185 335.661 246.596C333.138 243.999 334.812 245.395 332.877 243.328C331.944 242.331 331.325 241.759 331.224 240.83C331.154 240.167 331.382 239.651 332.007 238.535C334.607 233.888 336.042 233.189 336.444 233.017C336.962 232.777 337.534 232.679 338.102 232.733C338.515 232.785 338.913 232.921 339.272 233.134C344.27 235.974 347.276 238.223 347.276 238.223C349.35 239.775 348.821 239.102 353.263 242.034C356.502 244.172 359.034 246.015 360.631 247.209C360.897 246.773 361.291 246.127 361.762 245.335C363.241 242.85 363.549 242.198 363.754 241.729C364.098 240.928 364.38 240.102 364.597 239.257C364.494 239.004 364.35 238.637 364.198 238.189C363.808 237.043 363.399 235.487 363.204 233.308C362.896 229.883 363.243 226.303 363.415 224.593C363.717 221.599 363.968 219.109 364.894 215.921C365.552 213.655 365.809 213.588 366.198 211.736Z" fill="#FEE6E7"/>
<path d="M361.709 266.679C359.702 266.679 358.063 266.579 357.917 266.571L357.949 266.048C358.028 266.048 365.832 266.524 368.445 265.411C371.11 264.278 372.393 262.739 376.433 257.59C388.41 242.324 394.869 228.582 394.933 228.445L395.405 228.666C395.342 228.803 388.86 242.597 376.843 257.913C372.739 263.142 371.433 264.705 368.65 265.892C367.151 266.531 364.156 266.679 361.709 266.679Z" fill="#FDCCCE"/>
<path d="M361.421 246.407L360.993 246.108C361.017 246.073 363.467 242.523 364.343 239.188C364.639 238.062 365.361 236.784 365.888 235.85C366.076 235.517 366.236 235.23 366.357 234.996C367.847 232.048 372.093 226.189 372.273 225.94L372.698 226.249C372.654 226.309 368.297 232.322 366.825 235.233C366.702 235.478 366.537 235.77 366.346 236.105C365.833 237.014 365.128 238.258 364.851 239.318C363.948 242.747 361.524 246.26 361.421 246.407Z" fill="#FDCCCE"/>
<path d="M366.623 173.421C366.274 173.427 365.926 173.398 365.583 173.334C365.516 173.319 365.453 173.291 365.397 173.251C365.341 173.211 365.293 173.161 365.257 173.103C365.22 173.045 365.195 172.98 365.183 172.913C365.172 172.845 365.173 172.776 365.189 172.709C365.204 172.642 365.232 172.578 365.271 172.522C365.311 172.466 365.361 172.418 365.419 172.381C365.536 172.307 365.678 172.283 365.813 172.313C365.836 172.319 366.734 172.497 368.458 172.194C368.594 172.171 368.733 172.202 368.846 172.282C368.959 172.362 369.036 172.483 369.06 172.619C369.083 172.755 369.052 172.896 368.973 173.009C368.894 173.122 368.774 173.2 368.638 173.224C367.973 173.348 367.299 173.414 366.623 173.421Z" fill="#1F1900"/>
<path d="M379.415 180.101C378.41 180.101 377.95 178.892 377.931 178.84C377.907 178.775 377.911 178.704 377.939 178.642C377.968 178.579 378.021 178.531 378.085 178.507C378.149 178.483 378.22 178.485 378.283 178.513C378.346 178.541 378.395 178.593 378.42 178.657C378.42 178.669 378.775 179.578 379.418 179.578H379.452C380.207 179.54 380.739 178.968 380.744 178.961C380.792 178.913 380.856 178.886 380.923 178.884C380.991 178.883 381.056 178.907 381.106 178.953C381.155 178.998 381.185 179.062 381.19 179.129C381.194 179.196 381.172 179.263 381.129 179.314C381.102 179.345 380.445 180.052 379.476 180.099L379.415 180.101Z" fill="#302D2C"/>
</g>
<g clip-path="url(#clip4)">
<g filter="url(#filter0_d)">
<path d="M236.573 314.564C236.825 316.691 237.221 318.8 237.757 320.874C238.302 322.978 238.588 324.052 239.265 325.189C239.727 325.968 240.505 327.043 243.571 329.396C245.285 330.707 247.063 331.931 248.9 333.064C251.578 334.727 253.25 335.542 255.198 337.595C257.025 339.52 256.766 340.077 256.705 340.184C256.572 340.416 256.196 340.572 254.229 340.4C251.791 340.186 250.604 339.868 250.604 339.868C248.046 339.183 245.411 338.83 242.817 338.296C237.543 337.212 236.324 337.114 235.012 335.815C234.594 335.401 233.652 334.469 233.289 333.011C232.986 331.791 233.352 331.27 233.181 329.828C233.13 329.388 233.004 328.668 231.889 326.322C230.671 323.756 230.182 323.27 229.414 321.629C228.716 320.13 228.192 318.555 227.852 316.937L236.573 314.564Z" fill="#FFC5A8"/>
</g>
<g filter="url(#filter1_d)">
<path d="M201.529 338.458C201.239 340.993 200.952 343.529 200.669 346.064C200.542 347.196 200.416 348.329 200.292 349.462C201.192 349.98 202.598 350.751 204.383 351.565C206.725 352.633 207.5 352.767 210.25 353.993C212.018 354.781 212.972 355.309 214.88 356.366C217.356 357.741 218.664 358.631 218.629 359.62C218.627 360.012 218.496 360.392 218.256 360.701C218.016 361.01 217.681 361.231 217.302 361.329C214.14 362.253 209.793 361.194 209.793 361.194C205.735 360.205 206.557 361.113 198.085 359.549C195.462 359.063 193.805 358.687 192.647 357.229C192.427 356.951 191.253 355.413 191.477 353.54C191.667 351.941 192.697 351.59 193.293 349.516C193.595 348.468 193.545 347.817 193.563 346.333C193.592 344.152 193.736 341.973 193.993 339.807L201.529 338.458Z" fill="#FFC5A8"/>
</g>
<path d="M144.818 260.903C143.899 261.858 144.187 262.502 143.244 264.786C142.08 267.602 141.161 267.787 139.974 270.247C138.867 272.541 138.637 274.511 138.399 276.558C138.076 279.308 137.774 281.936 138.763 284.931C138.903 285.356 140.918 291.161 146.514 293.547C148.473 294.382 149.986 294.42 155.961 294.033C165.718 293.399 170.595 293.083 173.402 292.334C179.061 290.823 179.054 289.678 186.483 287.601C192.141 286.019 194.969 285.228 197.504 285.78C201.461 286.643 204.516 290.008 210.463 296.703C212.091 298.535 213.987 300.682 216.519 304.105C220.543 309.562 224.07 315.37 227.056 321.459C228.462 321.298 229.844 320.972 231.174 320.488C234.745 319.19 237.128 317.042 238.441 315.634C238.009 314.107 237.392 311.931 236.625 309.323C235.184 304.407 233.181 297.571 230.569 289.784C228.21 282.753 226.324 277.834 224.392 272.794C224.392 272.794 223.113 269.458 217.033 256.765C216.337 255.298 215.474 253.916 214.461 252.648C213.784 251.804 212.817 250.594 211.554 249.736C209.555 248.377 207.21 248.167 204.166 248.401C198.637 248.824 194.396 250.436 193.023 250.948C182.352 254.933 177.016 256.925 170.738 256.652C165.078 256.41 163.157 254.63 158.626 256.046C155.281 257.097 154.44 258.657 150.27 259.322C147.883 259.703 146.153 259.513 144.818 260.903Z" fill="#FCD557"/>
<path d="M211.066 285.536C210.144 292.674 209.774 299.875 208.886 307.016C208.229 312.305 207.751 317.324 206.492 327.891C205.932 332.744 204.779 337.51 203.059 342.082C201.734 342.353 200.62 342.556 199.802 342.698C196.027 343.353 194.842 343.359 193.67 343.154C193.009 343.037 192.359 342.856 191.733 342.614C191.608 341.805 191.431 340.591 191.248 339.108C190.951 336.706 190.802 334.919 190.764 334.47C190.415 330.414 189.263 321.334 188.422 315.393C186.596 302.571 186.035 303.137 185.752 297.311C185.318 288.331 186.55 284.867 188.053 282.385C188.675 281.359 190.807 278.079 194.957 275.952C196.565 275.127 202.69 271.988 207.068 274.981C210.207 277.129 210.928 281.39 211.065 282.385C211.209 283.43 211.209 284.49 211.066 285.536Z" fill="#F6CB3F"/>
<path d="M212.268 248.947C210.896 248.091 209.996 247.526 208.392 246.896C207.071 246.378 206.124 246.006 204.732 245.845C203.793 245.733 202.843 245.742 201.906 245.872C200.204 246.126 199.74 246.646 198.219 247.005C197.379 247.202 196.132 247.371 194.504 247.139L194.37 251.293C195.057 251.338 196.083 251.387 197.33 251.374C199.04 251.355 199.617 251.237 200.668 251.212C202.383 251.17 203.615 251.427 206.078 251.94C207.826 252.304 209.523 252.764 211.299 252.722C212.093 252.666 212.865 252.436 213.56 252.048C214.07 251.765 214.215 251.569 214.26 251.374C214.364 250.923 213.944 250.465 213.479 249.971C213.118 249.583 212.711 249.239 212.268 248.947Z" fill="#FFC5A8"/>
<path d="M171.089 230.391C173.33 233.646 175.458 236.719 178.356 240.141C180.04 242.127 181.02 243.277 182.635 244.712C184.2 246.105 185.889 247.351 187.682 248.434C187.028 249.205 186.25 249.861 185.38 250.376C180.326 253.342 173.128 250.61 168.908 247.139C166.825 245.426 163.88 243.002 163.579 239.048C163.279 235.094 165.751 231.072 169.877 228.611C170.147 229.012 170.572 229.635 171.089 230.391Z" fill="#DC484E"/>
<path d="M167.24 171.139C167.563 172.69 167.822 172.739 168.371 174.861C168.61 175.728 168.793 176.61 168.918 177.5C169.09 178.779 168.993 179.322 169.555 181.496C169.555 181.496 170.107 183.63 169.824 185.972C169.798 186.187 169.749 186.51 169.501 186.728C168.902 187.255 167.92 186.485 167.025 186.728C165.913 187.029 165.567 188.718 165.194 189.803C164.513 191.789 162.758 194.514 160.565 195.52C158.055 196.671 154.23 195.838 152.652 193.632C151.212 191.617 152.832 190.117 151.522 185.703C150.714 182.979 149.894 182.871 149.638 180.687C149.548 179.924 149.272 176.731 151.199 174.214C152.1 173.036 152.819 172.874 158.896 170.6C163.939 168.713 165.985 167.874 166.809 168.766C167.153 169.138 166.873 169.366 167.24 171.139Z" fill="#FFC5A8"/>
<path d="M167.617 164.612C166.414 161.619 163.302 158.005 158.383 155.441C156.087 154.246 150.487 151.329 143.486 152.529C135.386 153.919 129.877 160.103 128.589 161.628C126.975 163.554 126.291 164.964 123.987 166.725C120.596 169.319 117.38 169.845 115.024 170.486C111.128 171.548 104.001 174.169 99.7635 180.074C97.4671 183.275 96.6912 186.595 96.0751 189.233C95.4219 192.032 95.6358 192.848 94.5555 201.554C93.983 206.166 93.7634 207.223 93.2232 208.594C92.1993 211.189 90.8767 212.746 88.351 215.663C80.0868 225.211 80.1199 225.066 79.5498 225.939C76.1416 231.158 75.0806 236.089 74.7584 237.832C74.059 241.717 74.068 245.697 74.7851 249.579C75.2066 251.876 75.8784 255.531 78.2038 259.273C82.4882 266.167 89.4645 268.651 91.8909 269.514C101.038 272.771 109.116 270.493 112.141 269.595C112.845 269.386 115.931 267.948 122.102 265.073C131.297 260.79 133.466 259.521 135.733 257.381C138.924 254.369 140.557 251.287 141.425 249.613C144.235 244.201 144.669 239.136 145.422 229.224C146.159 219.538 145.694 214.4 148.208 210.049C149.184 208.417 150.034 206.713 150.751 204.952C151.376 203.415 152.173 201.421 152.648 198.722C152.648 198.722 153.479 194.006 152.657 189.123C152.496 188.172 152.304 187.599 152.193 186.291C152.124 185.482 152.126 184.848 151.841 183.956C151.62 183.263 151.476 183.192 151.224 182.569C150.611 181.051 150.751 179.691 150.901 178.241C151.017 177.112 151.209 176.644 151.547 176.279C151.692 176.122 152.031 175.758 152.536 175.692C153.343 175.587 153.747 176.339 154.232 176.178C154.716 176.016 154.678 175.152 154.911 174.478C155.462 172.893 157.536 172.267 158.787 171.889C162.431 170.791 164.278 172.394 166.607 170.786C166.93 170.565 167.495 170.162 167.898 169.426C168.85 167.684 168.01 165.592 167.617 164.612Z" fill="#784A00"/>
<path d="M158.832 196.084C158.832 196.084 158.237 200.268 162.304 204.351C162.304 204.351 153.853 205.726 150.327 202.934C150.327 202.934 152.696 202.499 153.032 193.646C153.029 193.646 155.912 196.435 158.832 196.084Z" fill="#FFC5A8"/>
<path d="M163.902 205.229C165.213 206.842 166.394 207.879 169.877 211.054C172.848 213.761 173.051 213.777 173.672 214.695C174.964 216.597 175.368 218.41 175.61 219.549C176.314 222.843 175.887 225.456 175.045 230.31C174.637 232.666 174.493 232.846 173.753 236.621C173.151 239.696 172.727 242.229 172.461 243.903C173.597 244.478 174.787 244.938 176.014 245.278C177.694 245.743 179.581 246.015 187.238 245.521C190.532 245.308 194.101 245.005 194.747 244.955C195.113 245.37 196.378 246.906 196.443 249.243C196.477 250.686 196.052 252.102 195.231 253.288C194.614 253.571 193.703 253.986 192.594 254.475C188.855 256.123 186.61 257.113 184.358 257.847C182.724 258.378 179.594 259.372 175.53 259.518C172.277 259.629 169.029 259.191 165.921 258.224C165.39 258.49 164.614 258.864 163.66 259.275C160.01 260.849 158.654 260.846 153.89 262.269C153.89 262.269 148.631 263.935 145.896 264.13C145.167 264.156 144.438 264.059 143.74 263.843C143.366 263.739 143.019 263.557 142.72 263.308C142.483 263.091 142.283 262.835 142.129 262.552C139.56 257.698 139.194 254.097 139.194 254.097C138.337 245.637 135.743 241.982 135.076 227.64C134.91 224.059 134.905 220.569 135.965 216.394C136.783 213.17 137.483 210.547 139.76 208.303C141.118 206.966 142.926 205.982 146.542 204.015C148.106 203.165 149.346 202.834 150.256 202.397C151.407 203.003 152.627 203.465 153.89 203.772C156 204.283 157.734 204.233 159.3 204.177C160.409 204.137 161.515 204.029 162.61 203.853C162.806 204.112 163.516 204.752 163.902 205.229Z" fill="#F8666C"/>
<path d="M165.034 179.419C164.957 179.419 164.882 179.401 164.814 179.367C164.746 179.332 164.687 179.282 164.642 179.22C163.953 178.279 162.072 178.598 162.053 178.602C161.991 178.613 161.926 178.612 161.864 178.599C161.802 178.586 161.743 178.56 161.69 178.524C161.584 178.451 161.512 178.339 161.488 178.213C161.465 178.086 161.493 177.955 161.565 177.849C161.638 177.743 161.75 177.67 161.876 177.647C161.977 177.628 164.367 177.203 165.424 178.646C165.461 178.697 165.488 178.756 165.504 178.818C165.519 178.88 165.521 178.944 165.512 179.007C165.502 179.07 165.48 179.131 165.447 179.185C165.414 179.24 165.371 179.287 165.319 179.325C165.237 179.386 165.136 179.419 165.034 179.419Z" fill="#784A00"/>
<path d="M151.714 183.601C151.714 183.601 152.961 184.167 153.688 183.302L151.714 183.601Z" fill="#FFE4BF"/>
<path d="M152.6 184.028C152.261 184.024 151.926 183.954 151.614 183.822C151.555 183.795 151.51 183.746 151.487 183.686C151.464 183.626 151.466 183.559 151.493 183.501C151.519 183.442 151.568 183.396 151.628 183.373C151.688 183.351 151.755 183.353 151.813 183.379C151.859 183.4 152.906 183.857 153.503 183.146C153.545 183.097 153.604 183.066 153.668 183.061C153.732 183.055 153.796 183.075 153.845 183.117C153.894 183.159 153.925 183.218 153.93 183.282C153.935 183.346 153.915 183.41 153.874 183.459C153.718 183.644 153.522 183.791 153.302 183.89C153.081 183.988 152.841 184.036 152.6 184.028V184.028Z" fill="#302D2C"/>
<path d="M153.435 175.92C153.435 175.92 154.819 176.789 154.859 177.437L153.435 175.92Z" fill="#FFE4BF"/>
<path d="M154.859 177.679C154.797 177.679 154.738 177.656 154.693 177.614C154.648 177.571 154.621 177.514 154.617 177.452C154.594 177.092 153.836 176.46 153.305 176.126C153.251 176.092 153.212 176.037 153.198 175.974C153.183 175.912 153.194 175.846 153.228 175.791C153.262 175.737 153.317 175.698 153.379 175.683C153.442 175.669 153.508 175.68 153.562 175.714C153.811 175.87 155.054 176.685 155.096 177.422C155.098 177.454 155.094 177.486 155.084 177.516C155.073 177.546 155.057 177.574 155.036 177.598C155.015 177.622 154.989 177.641 154.961 177.655C154.932 177.669 154.901 177.677 154.869 177.679H154.859Z" fill="#302D2C"/>
<path d="M177.354 245.818H177.328C177.262 245.811 175.676 245.626 173.169 244.553C170.867 243.566 167.324 241.607 163.516 237.875C159.707 234.143 157.621 230.379 156.546 227.88C155.375 225.164 155.112 223.355 155.101 223.28C155.096 223.248 155.097 223.216 155.105 223.184C155.113 223.153 155.126 223.124 155.146 223.098C155.165 223.072 155.189 223.05 155.216 223.033C155.244 223.017 155.275 223.006 155.306 223.002C155.338 222.997 155.371 222.999 155.402 223.007C155.433 223.015 155.462 223.03 155.488 223.049C155.513 223.069 155.535 223.093 155.551 223.121C155.567 223.149 155.577 223.18 155.581 223.212C155.581 223.23 155.85 225.046 156.999 227.707C158.058 230.161 160.107 233.856 163.854 237.528C167.6 241.2 171.078 243.126 173.337 244.096C175.783 245.148 177.366 245.334 177.381 245.336C177.445 245.339 177.505 245.368 177.548 245.416C177.591 245.464 177.613 245.527 177.61 245.592C177.606 245.656 177.578 245.717 177.53 245.76C177.482 245.803 177.419 245.825 177.354 245.821V245.818Z" fill="#DC484E"/>
<path d="M166.35 258.595C166.319 258.595 166.289 258.589 166.26 258.578C166.21 258.558 161.206 256.544 156.557 253.491C151.886 250.425 146.539 242.434 146.314 242.096C146.278 242.043 146.265 241.977 146.278 241.914C146.29 241.85 146.328 241.795 146.381 241.759C146.435 241.723 146.5 241.711 146.563 241.723C146.626 241.736 146.682 241.773 146.717 241.827C146.771 241.908 152.235 250.074 156.822 253.085C161.431 256.112 166.39 258.107 166.44 258.127C166.493 258.147 166.536 258.186 166.563 258.236C166.591 258.285 166.6 258.343 166.589 258.398C166.578 258.454 166.548 258.504 166.505 258.54C166.461 258.576 166.406 258.595 166.35 258.595Z" fill="#DC484E"/>
</g>
<defs>
<filter id="filter0_d" x="223.852" y="314.564" width="36.9009" height="33.9097" filterUnits="userSpaceOnUse" color-interpolation-filters="sRGB">
<feFlood flood-opacity="0" result="BackgroundImageFix"/>
<feColorMatrix in="SourceAlpha" type="matrix" values="0 0 0 0 0 0 0 0 0 0 0 0 0 0 0 0 0 0 127 0"/>
<feOffset dy="4"/>
<feGaussianBlur stdDeviation="2"/>
<feColorMatrix type="matrix" values="0 0 0 0 0 0 0 0 0 0 0 0 0 0 0 0 0 0 0.25 0"/>
<feBlend mode="normal" in2="BackgroundImageFix" result="effect1_dropShadow"/>
<feBlend mode="normal" in="SourceGraphic" in2="effect1_dropShadow" result="shape"/>
</filter>
<filter id="filter1_d" x="187.448" y="338.458" width="35.1809" height="31.2491" filterUnits="userSpaceOnUse" color-interpolation-filters="sRGB">
<feFlood flood-opacity="0" result="BackgroundImageFix"/>
<feColorMatrix in="SourceAlpha" type="matrix" values="0 0 0 0 0 0 0 0 0 0 0 0 0 0 0 0 0 0 127 0"/>
<feOffset dy="4"/>
<feGaussianBlur stdDeviation="2"/>
<feColorMatrix type="matrix" values="0 0 0 0 0 0 0 0 0 0 0 0 0 0 0 0 0 0 0.25 0"/>
<feBlend mode="normal" in2="BackgroundImageFix" result="effect1_dropShadow"/>
<feBlend mode="normal" in="SourceGraphic" in2="effect1_dropShadow" result="shape"/>
</filter>
<clipPath id="clip0">
<rect width="121" height="170" fill="white" transform="translate(421 145)"/>
</clipPath>
<clipPath id="clip1">
<rect width="108" height="203" fill="white" transform="translate(332 165)"/>
</clipPath>
<clipPath id="clip2">
<rect width="108" height="203" fill="white" transform="translate(102 166)"/>
</clipPath>
<clipPath id="clip3">
<rect width="122" height="210" fill="white" transform="translate(281 154)"/>
</clipPath>
<clipPath id="clip4">
<rect width="183" height="210" fill="white" transform="translate(74 152)"/>
</clipPath>
</defs>
</svg>
